HIERARCHY
ROOT SpineBase
{
  OFFSET 0.000000 0.000000 0.000000
  CHANNELS 6 Xposition Yposition Zposition Zrotation Xrotation Yrotation
  JOINT SpineMid
  {
    OFFSET 0.000000 33.116185 0.000000
    CHANNELS 3 Zrotation Xrotation Yrotation
    JOINT SpineShoulder
    {
      OFFSET 0.031917 24.527188 -0.816115
      CHANNELS 3 Zrotation Xrotation Yrotation
      JOINT Neck
      {
        OFFSET 0.030315 8.094392 -0.617509
        CHANNELS 3 Zrotation Xrotation Yrotation
        JOINT Head
        {
          OFFSET 1.933436 15.017046 -0.620471
          CHANNELS 3 Zrotation Xrotation Yrotation
          End Site
          {
            OFFSET 0 0 0
          }
        }
      }
      JOINT ShoulderLeft
      {
        OFFSET -16.859537 -0.977403 -1.073106
        CHANNELS 3 Zrotation Xrotation Yrotation
        JOINT ElbowLeft
        {
          OFFSET -5.408727 -21.596803 -1.928012
          CHANNELS 3 Zrotation Xrotation Yrotation
          JOINT WristLeft
          {
            OFFSET 12.795609 -12.056045 -12.584737
            CHANNELS 3 Zrotation Xrotation Yrotation
            JOINT HandLeft
            {
              OFFSET 5.051091 -3.485196 -1.338240
              CHANNELS 3 Zrotation Xrotation Yrotation
              JOINT HandTipLeft
              {
                OFFSET 7.275192 -4.038763 -9.264648
                CHANNELS 3 Zrotation Xrotation Yrotation
                End Site
                {
                  OFFSET 0 0 0
                }
              }
              JOINT ThumbLeft
              {
                OFFSET 0.747061 0.991265 -3.307033
                CHANNELS 3 Zrotation Xrotation Yrotation
                End Site
                {
                  OFFSET 0 0 0
                }
              }
            }
          }
        }
      }
      JOINT ShoulderRight
      {
        OFFSET 16.384601 -2.678537 4.895274
        CHANNELS 3 Zrotation Xrotation Yrotation
        JOINT ElbowRight
        {
          OFFSET 3.256916 -21.528453 2.398769
          CHANNELS 3 Zrotation Xrotation Yrotation
          JOINT WristRight
          {
            OFFSET -10.244142 -14.662581 -21.146610
            CHANNELS 3 Zrotation Xrotation Yrotation
            JOINT HandRight
            {
              OFFSET -3.834475 -3.009234 -6.021403
              CHANNELS 3 Zrotation Xrotation Yrotation
              JOINT HandTipRight
              {
                OFFSET -2.852928 -0.323418 -6.107188
                CHANNELS 3 Zrotation Xrotation Yrotation
                End Site
                {
                  OFFSET 0 0 0
                }
              }
              JOINT ThumbRight
              {
                OFFSET -2.681845 1.003407 -6.588384
                CHANNELS 3 Zrotation Xrotation Yrotation
                End Site
                {
                  OFFSET 0 0 0
                }
              }
            }
          }
        }
      }
    }
  }
  JOINT HipLeft
  {
    OFFSET -7.682708 1.092231 -5.311092
    CHANNELS 3 Zrotation Xrotation Yrotation
    JOINT KneeLeft
    {
      OFFSET -4.965492 -36.808774 -0.914628
      CHANNELS 3 Zrotation Xrotation Yrotation
      JOINT AnkleLeft
      {
        OFFSET -6.723427 -34.229025 7.230671
        CHANNELS 3 Zrotation Xrotation Yrotation
        JOINT FootLeft
        {
          OFFSET 2.239523 -1.722239 -12.688785
          CHANNELS 3 Zrotation Xrotation Yrotation
          End Site
          {
            OFFSET 0 0 0
          }
        }
      }
    }
  }
  JOINT HipRight
  {
    OFFSET 8.384011 0.113452 -2.210771
    CHANNELS 3 Zrotation Xrotation Yrotation
    JOINT KneeRight
    {
      OFFSET 0.795477 -36.310048 -0.218955
      CHANNELS 3 Zrotation Xrotation Yrotation
      JOINT AnkleRight
      {
        OFFSET -3.265252 -34.301668 11.803599
        CHANNELS 3 Zrotation Xrotation Yrotation
        JOINT FootRight
        {
          OFFSET 1.656144 -1.580294 -12.352628
          CHANNELS 3 Zrotation Xrotation Yrotation
          End Site
          {
            OFFSET 0 0 0
          }
        }
      }
    }
  }
}
MOTION
Frames: 7
Frame Time: 0.033333
-35.754612 77.721617 368.486527 1.184501 -1.943937 -40.118957 0.103144 -0.453841 40.182694 -0.245217 -0.112178 0.034886 -24.893031 -6.950880 -0.785878 0.000000 0.000000 0.000000 -4.324676 19.733066 -3.311275 22.319819 -28.394394 -17.226518 8.613841 16.513686 13.550016 -15.365445 -9.235557 -30.002450 0.000000 0.000000 0.000000 0.000000 0.000000 0.000000 65.665867 -46.988459 27.041508 175.998978 -24.653586 118.595595 -38.889876 -36.369769 -20.707215 38.291930 -8.028124 5.862807 0.000000 0.000000 0.000000 0.000000 0.000000 0.000000 -1.304393 -3.168520 40.691984 2.014147 -0.821938 0.297021 -7.062154 -22.763553 -14.619925 0.000000 0.000000 0.000000 -1.694575 5.688414 40.181869 -1.314243 -3.198074 0.713631 -10.306610 -35.805523 -12.104831 0.000000 0.000000 0.000000
-35.980194 77.668195 368.325892 1.068517 -2.261914 -38.319446 0.139347 -0.472624 38.381939 -0.214905 -0.114000 0.034380 -24.437184 -8.526222 -0.756138 0.000000 0.000000 0.000000 -3.937358 17.550021 -2.823312 22.620521 -24.810267 -18.238507 6.390170 14.219679 14.517491 -14.209824 -8.364427 -28.919972 0.000000 0.000000 0.000000 0.000000 0.000000 0.000000 61.351643 -38.620465 20.775255 176.963205 -19.900026 116.875556 -33.253225 -35.841436 -20.157384 35.031559 -12.389533 9.308750 0.000000 0.000000 0.000000 0.000000 0.000000 0.000000 -1.410125 -2.794653 38.900783 2.388570 -0.922510 0.409270 -10.230901 -35.343882 -7.197196 0.000000 0.000000 0.000000 -2.403641 5.755182 38.437366 0.303722 -3.758886 1.102832 -10.746618 -33.511667 -12.539657 0.000000 0.000000 0.000000
-36.169991 77.652952 368.241793 1.002591 -2.510402 -35.536494 0.172782 -0.411134 35.598914 -0.164117 -0.099862 0.038670 -23.497666 -9.903159 -0.696493 0.000000 0.000000 0.000000 -3.433550 15.615013 -2.489157 22.185045 -21.571822 -18.641760 4.975243 11.722237 14.440394 -10.789651 -4.735584 -26.790551 0.000000 0.000000 0.000000 0.000000 0.000000 0.000000 52.261976 -24.355379 11.777154 167.897381 1.352258 115.294989 -32.290030 -30.605619 -18.717280 26.147508 -10.156269 16.557992 0.000000 0.000000 0.000000 0.000000 0.000000 0.000000 -1.555871 -2.106730 36.075902 2.522247 -1.321979 0.575504 -11.170027 -42.816795 -1.697318 0.000000 0.000000 0.000000 -2.883349 5.788491 35.698507 1.572805 -4.215937 1.387313 -10.045645 -28.059174 -13.985620 0.000000 0.000000 0.000000
-36.349782 77.678356 368.218634 0.973538 -2.743399 -32.366713 0.229293 -0.366911 32.430882 -0.136287 -0.118241 0.044040 -22.274910 -10.877086 -0.547152 0.000000 0.000000 0.000000 -3.075172 13.728747 -2.110800 21.674339 -18.492274 -19.025545 4.690302 10.122818 13.959421 -8.659608 -2.761824 -26.613219 0.000000 0.000000 0.000000 0.000000 0.000000 0.000000 45.941628 -10.150656 5.965213 148.282183 29.440775 127.497558 -29.807803 -25.142680 -17.886798 10.980740 -10.664111 19.626944 0.000000 0.000000 0.000000 0.000000 0.000000 0.000000 -1.582769 -1.183463 32.837285 2.447452 -1.724497 0.750831 -11.158716 -47.079644 2.477973 0.000000 0.000000 0.000000 -3.067987 5.928280 32.554318 2.261153 -4.504539 1.526642 -10.452461 -28.743901 -13.136906 0.000000 0.000000 0.000000
-36.502045 77.754118 368.272624 0.995932 -2.942982 -28.971751 0.284782 -0.292594 29.039723 -0.097059 -0.125135 0.052411 -20.836879 -11.264421 -0.348111 0.000000 0.000000 0.000000 -2.736720 11.805813 -1.748155 21.124320 -15.053283 -18.964231 2.845152 6.442807 12.983468 -5.678223 0.968851 -23.294881 0.000000 0.000000 0.000000 0.000000 0.000000 0.000000 39.967849 3.891435 1.915682 103.242804 51.417200 173.759344 -23.134961 -16.358700 -16.714385 -10.810926 -19.240804 17.049758 0.000000 0.000000 0.000000 0.000000 0.000000 0.000000 -1.569076 -0.110909 29.344902 2.264738 -2.053220 0.902393 -11.137597 -47.547860 3.785657 0.000000 0.000000 0.000000 -3.027930 5.970141 29.165115 2.632628 -4.582828 1.582372 -11.084887 -31.719190 -11.021842 0.000000 0.000000 0.000000
-36.610090 77.871152 368.394926 1.026627 -3.085981 -25.778211 0.303287 -0.206919 25.848952 -0.094154 -0.115374 0.057315 -19.047682 -11.709264 -0.140615 0.000000 0.000000 0.000000 -2.684569 9.992693 -1.348786 19.937245 -11.804236 -18.094210 2.466113 2.604843 10.081845 -3.186206 3.641992 -21.712638 0.000000 0.000000 0.000000 0.000000 0.000000 0.000000 34.813291 14.665209 -0.156754 48.983083 37.424344 -125.444743 -43.049040 -8.777258 -20.883824 0.844592 -12.054479 7.174245 0.000000 0.000000 0.000000 0.000000 0.000000 0.000000 -1.535118 0.957741 26.039415 1.998488 -2.618420 1.062186 -11.796304 -44.108381 0.428771 0.000000 0.000000 0.000000 -2.745372 5.816198 25.952602 2.730726 -4.232380 1.554563 -12.108491 -38.440570 -7.598213 0.000000 0.000000 0.000000
-36.745454 77.970656 368.528038 1.010823 -3.276387 -22.715327 0.301199 -0.119232 22.785757 -0.110445 -0.098690 0.058088 -17.180933 -11.983176 0.090596 0.000000 0.000000 0.000000 -2.615131 8.715982 -1.045121 18.026925 -9.720378 -16.907803 1.468124 1.003289 8.637357 -0.597499 6.205989 -19.026125 0.000000 0.000000 0.000000 0.000000 0.000000 0.000000 30.912117 21.847865 -0.973168 30.656828 16.557106 -98.296088 -35.044441 -2.746917 -19.599540 -0.254784 -18.511506 3.528170 0.000000 0.000000 0.000000 0.000000 0.000000 0.000000 -1.401749 2.066939 22.861051 1.685948 -3.242537 1.212302 -12.025121 -44.108564 0.133144 0.000000 0.000000 0.000000 -2.452655 5.505244 22.867587 2.992363 -3.605242 1.553993 -12.610076 -46.767765 -2.354403 0.000000 0.000000 0.000000
